<svg width="308" height="200" fill="none" xmlns="http://www.w3.org/2000/svg"><g clip-path="url(#a)"><path fill="#FBB6CE" d="M0 0h308v200H0z"/><path fill="url(#b)" d="M0 0h308v200H0z"/><path d="M281.884 80.662c1.159-.003 1.394 1.638.281 1.961l-56.654 16.416c-.962.28-.962 1.643 0 1.921l56.651 16.409c1.113.322.878 1.964-.281 1.96l-59.001-.166c-1.002-.003-1.385 1.306-.54 1.844l49.725 31.671c.978.623.291 2.132-.821 1.803l-56.567-16.738c-.961-.284-1.696.863-1.037 1.617l38.766 44.356c.762.872-.322 2.126-1.295 1.498l-49.56-31.958c-.841-.542-1.869.351-1.45 1.26l24.67 53.455c.486 1.051-.907 1.949-1.664 1.073l-38.531-44.588c-.654-.757-1.892-.19-1.746.8l8.565 58.225c.169 1.146-1.42 1.614-1.9.56l-24.372-53.61c-.414-.91-1.761-.716-1.901.274l-8.232 58.285c-.162 1.146-1.818 1.146-1.98 0l-8.232-58.285c-.14-.99-1.487-1.184-1.901-.274l-24.372 53.61c-.48 1.054-2.069.586-1.9-.56l8.565-58.225c.145-.99-1.092-1.556-1.746-.799l-38.523 44.586c-.758.877-2.15-.02-1.665-1.072l24.664-53.456c.419-.909-.609-1.802-1.45-1.259l-49.56 31.958c-.974.628-2.058-.626-1.296-1.498L94.36 139.36c.66-.754-.076-1.901-1.037-1.617l-56.567 16.738c-1.112.329-1.799-1.18-.821-1.803l49.725-31.671c.845-.538.462-1.847-.54-1.844l-59.001.166c-1.16.004-1.394-1.638-.281-1.96l56.651-16.409c.962-.278.962-1.642 0-1.92L25.835 82.622c-1.113-.323-.878-1.964.281-1.96l59.004.166c1.001.002 1.384-1.306.54-1.844L35.936 47.322c-.977-.622-.29-2.13.821-1.802l56.565 16.737c.96.284 1.696-.863 1.037-1.617L55.594 16.284c-.762-.872.322-2.126 1.295-1.498l49.561 31.958c.841.543 1.869-.35 1.45-1.26L83.236-7.97c-.485-1.052.907-1.949 1.665-1.072l38.523 44.586c.654.757 1.892.19 1.746-.8l-8.565-58.232c-.169-1.146 1.42-1.613 1.9-.559l24.372 53.617c.414.91 1.761.716 1.901-.274l8.232-58.285c.162-1.147 1.818-1.146 1.98 0l8.232 58.284c.14.991 1.487 1.185 1.901.274l24.372-53.616c.48-1.055 2.069-.587 1.9.56l-8.565 58.232c-.146.99 1.092 1.557 1.746.8l38.531-44.588c.757-.876 2.15.022 1.664 1.073l-24.67 53.455c-.419.91.609 1.802 1.45 1.26l49.56-31.958c.973-.628 2.057.626 1.295 1.498L213.64 60.64c-.659.754.076 1.901 1.037 1.617l56.565-16.737c1.111-.329 1.798 1.18.821 1.802L222.34 78.985c-.845.538-.461 1.846.54 1.844l59.004-.166Z" fill="#B8AFFD"/><g filter="url(#c)"><rect x="38" y="74" width="232" height="52.452" rx="4" fill="#F6F5FF"/></g><path d="M63.145 85.732a1.255 1.255 0 0 0-2.283 0l-4.148 8.982-8.982 4.14a1.257 1.257 0 0 0-.732 1.15c0 .496.283.937.732 1.141l8.982 4.149 4.14 8.974a1.254 1.254 0 0 0 2.284 0l4.148-8.982 8.982-4.149a1.255 1.255 0 0 0 0-2.282l-8.974-4.141-4.149-8.982Z" fill="#9DA0FF"/><path d="M230.167 106.977c-.233 0-.42-.023-.559-.069-.746-.186-1.282-.465-1.608-.836-.279-.418-.466-.743-.559-.976-.326-1.021-.21-2.066.349-3.135.56-1.114 1.282-2.275 2.167-3.483.28-.371.536-.766.769-1.184.279-.465.512-.86.699-1.184.046-.047.116-.14.209-.279-.279.093-.629.232-1.048.418-.373.186-.815.464-1.328.836-.839.51-1.724 1.184-2.656 2.02-.932.79-1.887 1.626-2.865 2.508-.233.186-.489.395-.769.627l-.699.697c-.372.33-.8.513-1.283.55-1.993.691-3.823 1.32-5.487 1.888a134.332 134.332 0 0 1-4.753 1.532c-1.864.557-3.285.952-4.263 1.184-.979.186-1.724.279-2.237.279-.326 0-.629-.046-.908-.139-.886-.186-1.515-.72-1.887-1.603-.28-.789-.21-1.671.209-2.647.466-.975 1.072-2.066 1.818-3.274.279-.418.535-.836.768-1.254.28-.464.513-.882.699-1.254.093-.14.163-.255.21-.348.047-.14.093-.256.14-.349-1.398-.232-3.029-.278-4.893-.139-1.817.093-3.867.441-6.15 1.045-2.004.511-4.17 1.184-6.5 2.02-2.16.747-4.444 1.639-6.854 2.677-.1.068-.208.128-.322.18a138.665 138.665 0 0 0-5.661 2.647 596.534 596.534 0 0 0-3.914 2.02l-1.468.767c-.28.232-.629.348-1.048.348-.559 0-1.025-.163-1.398-.488-.746-.603-.955-1.37-.629-2.299 0-.046.163-.603.489-1.672.373-1.068.792-2.275 1.258-3.622.233-.79.443-1.463.629-2.02.187-.604.35-1.138.489-1.603a406.773 406.773 0 0 0-4.612 1.742 528.43 528.43 0 0 0-5.732 2.09c-1.877.713-3.711 1.404-5.503 2.074a65.07 65.07 0 0 1-4.087 3.221c-1.491 1.115-3.006 1.951-4.543 2.508a7.972 7.972 0 0 1-4.543.209c-.746-.325-1.282-.79-1.608-1.393-.279-.651-.372-1.37-.279-2.16.14-.789.419-1.765.838-2.926-.512.465-1.048.906-1.607 1.324-.513.418-1.072.882-1.677 1.393-6.43 5.062-11.439 7.594-15.027 7.594-.326 0-.652-.047-.979-.14l-.978-.139c-.839-.232-1.421-.72-1.747-1.463-.42-.929-.42-2.044 0-3.344.466-1.347 1.211-3.065 2.236-5.155.187-.372.373-.79.559-1.254.233-.465.443-.906.629-1.324-.605.232-1.258.627-1.957 1.185-.652.51-1.328 1.044-2.026 1.602l-.088.059a2.242 2.242 0 0 1-.379.219 138.665 138.665 0 0 0-5.661 2.647 596.534 596.534 0 0 0-3.914 2.02l-1.468.767c-.279.232-.629.348-1.048.348-.559 0-1.025-.163-1.398-.488-.745-.603-.955-1.37-.629-2.299 0-.046.163-.603.489-1.672.373-1.068.792-2.275 1.258-3.622.233-.79.443-1.463.629-2.02.187-.604.35-1.138.49-1.603a406.038 406.038 0 0 0-4.613 1.742c-1.817.65-3.728 1.347-5.731 2.09a1127.02 1127.02 0 0 1-5.731 2.159 1.97 1.97 0 0 1-1.538-.069 2.404 2.404 0 0 1-1.188-1.254c-.187-.511-.14-1.022.14-1.533a2.124 2.124 0 0 1 1.188-1.184c2.097-.743 4.263-1.51 6.5-2.299 2.236-.836 4.31-1.602 6.22-2.299 1.91-.743 3.471-1.347 4.683-1.811l1.817-.697c.233-.046.466-.07.699-.07a.955.955 0 0 1 .629.07c.652.093 1.118.465 1.398 1.115.233.371.326.859.279 1.463 0 .557-.116 1.37-.349 2.438-.14.604-.326 1.277-.559 2.02-.187.697-.443 1.51-.769 2.438a6.602 6.602 0 0 1-.14.488 6.602 6.602 0 0 0-.14.488c1.716-.941 3.787-1.921 6.214-2.94l.054-.055a46.398 46.398 0 0 0 2.026-1.533 14.747 14.747 0 0 1 2.237-1.393c1.91-.975 3.658-1.23 5.242-.766.745.139 1.305.603 1.677 1.393.373.743.35 1.672-.07 2.787-.372 1.114-1.025 2.624-1.957 4.528a27.274 27.274 0 0 1-.768 1.672 55.34 55.34 0 0 1-.699 1.602 1.566 1.566 0 0 1-.21.488l-.14.418c.979-.14 2.4-.627 4.264-1.463 1.91-.883 4.473-2.601 7.688-5.156a89.242 89.242 0 0 0 4.682-3.9c1.398-1.301 2.517-2.37 3.355-3.205l1.258-1.254c.559-.65 1.235-.86 2.027-.627.373.046.676.209.909.487.233.233.419.465.559.697.326.65.349 1.417.07 2.299-.233.836-.746 2.206-1.538 4.11l-.839 1.811a30.162 30.162 0 0 1-.699 1.672 6.638 6.638 0 0 1-.139.488.626.626 0 0 1-.07.279c.885-.14 1.817-.511 2.795-1.115a26.435 26.435 0 0 0 2.936-2.159c.978-.79 1.794-1.463 2.446-2.02.172-.155.35-.277.534-.368.08-.044.163-.085.251-.121 2.096-.743 4.263-1.51 6.499-2.299a829.01 829.01 0 0 1 6.221-2.299c1.91-.743 3.471-1.347 4.682-1.811l1.818-.697c.233-.046.466-.07.699-.07a.955.955 0 0 1 .629.07c.652.093 1.118.465 1.397 1.115.233.371.327.859.28 1.463 0 .557-.116 1.37-.349 2.438-.14.604-.327 1.277-.56 2.02-.186.697-.442 1.51-.768 2.438a7.13 7.13 0 0 1-.14.488 6.602 6.602 0 0 0-.14.488c1.751-.96 3.873-1.961 6.364-3.003.12-.083.251-.15.393-.202a100.483 100.483 0 0 1 7.478-2.996c2.423-.882 4.706-1.579 6.849-2.09 5.732-1.44 10.414-1.671 14.049-.696 1.071.278 1.817.929 2.236 1.95.42 1.022.326 2.16-.279 3.414a41.87 41.87 0 0 1-2.167 3.901 3.402 3.402 0 0 1-.21.349 4.485 4.485 0 0 0-.279.487c1.071-.232 2.656-.696 4.752-1.393 2.097-.697 4.986-1.718 8.667-3.065l.042-.015c.075-.065.15-.13.228-.194a8.51 8.51 0 0 1 .699-.627 74.49 74.49 0 0 1 4.403-3.692c1.445-1.161 2.866-2.043 4.264-2.647 1.397-.604 2.749-.72 4.053-.349.792.186 1.352.511 1.678.976.372.418.582.79.629 1.114.419 1.022.326 2.114-.28 3.275-.606 1.114-1.374 2.345-2.306 3.692-.093.093-.21.255-.35.487a3.628 3.628 0 0 1-.349.558 136.49 136.49 0 0 1 2.726-1.045c1.118-.418 2.469-.929 4.053-1.533.606-.186 1.165-.14 1.678.14.512.232.862.627 1.048 1.184.233.511.21 1.045-.07 1.602a2.18 2.18 0 0 1-1.118 1.115c-1.491.511-2.842.975-4.054 1.393-1.211.418-2.236.79-3.075 1.115-.466.185-.885.348-1.258.487-.326.093-.629.186-.909.279a8.807 8.807 0 0 0-.838.279 3.601 3.601 0 0 1-.699.069Z" fill="#AA9DFF"/></g><defs><linearGradient id="b" x1="91.5" y1="0" x2="247.5" y2="200" gradientUnits="userSpaceOnUse"><stop stop-color="#D4CEFF"/><stop offset="1" stop-color="#D1CFFE"/><stop offset="1" stop-color="#D1CEFF"/></linearGradient><clipPath id="a"><path fill="#fff" d="M0 0h308v200H0z"/></clipPath><filter id="c" x="30" y="68" width="248" height="68.452" filterUnits="userSpaceOnUse" color-interpolation-filters="sRGB"><feFlood flood-opacity="0" result="BackgroundImageFix"/><feColorMatrix in="SourceAlpha" values="0 0 0 0 0 0 0 0 0 0 0 0 0 0 0 0 0 0 127 0" result="hardAlpha"/><feOffset dy="2"/><feGaussianBlur stdDeviation="4"/><feComposite in2="hardAlpha" operator="out"/><feColorMatrix values="0 0 0 0 0 0 0 0 0 0 0 0 0 0 0 0 0 0 0.05 0"/><feBlend in2="BackgroundImageFix" result="effect1_dropShadow_711_10"/><feBlend in="SourceGraphic" in2="effect1_dropShadow_711_10" result="shape"/></filter></defs></svg>